Coordinates
version=1
nRows=54
nColumns=12
inDegrees=yes

Units are S.I. units (second, meters, Newtons, ...)
Angles are in degrees

endheader
time	SC_y	SC_z	SC_x	AC_y	AC_z	AC_x	GH_y	GH_z	GH_yy	EL_x	PS_y
       0.0              -42.96          1.571          55.85           45.3          1.871         -9.751          -69.8          77.85          -68.9          113.8          156.6
   0.04605              -42.96          1.576          55.84           45.3          1.871         -9.749          -69.8          77.84         -68.88          113.8          156.6
   0.09211              -42.96          1.581          55.84           45.3          1.872         -9.748          -69.8          77.84         -68.86          113.8          156.6
    0.1382              -42.96          1.587          55.83           45.3          1.873         -9.746          -69.8          77.83         -68.84          113.7          156.6
    0.1842              -42.96          1.592          55.82          45.29          1.874         -9.745         -69.81          77.83         -68.82          113.7          156.6
    0.2303              -42.96          1.599          55.81          45.29          1.875         -9.743         -69.81          77.82          -68.8          113.7          156.6
    0.2763              -42.96          1.605           55.8          45.29          1.876         -9.741         -69.81          77.81         -68.77          113.7          156.6
    0.3224              -42.96          1.612          55.79          45.29          1.877         -9.739         -69.81          77.81         -68.75          113.7          156.6
    0.3684              -42.96           1.62          55.78          45.29          1.878         -9.736         -69.81           77.8         -68.72          113.7          156.6
    0.4145              -42.97          1.628          55.77          45.28           1.88         -9.734         -69.82          77.79         -68.69          113.7          156.6
    0.4605              -42.97          1.637          55.76          45.28          1.881         -9.731         -69.82          77.78         -68.66          113.7          156.6
    0.5066              -42.97          1.646          55.75          45.28          1.883         -9.729         -69.82          77.77         -68.63          113.7          156.6
    0.5526              -42.97          1.656          55.73          45.27          1.884         -9.726         -69.82          77.76         -68.59          113.6          156.6
    0.5987              -42.97          1.667          55.72          45.27          1.886         -9.722         -69.83          77.75         -68.55          113.6          156.6
    0.6447              -42.97          1.679           55.7          45.26          1.888         -9.719         -69.83          77.74         -68.51          113.6          156.6
    0.6908              -42.97          1.692          55.68          45.26           1.89         -9.715         -69.84          77.73         -68.46          113.6          156.6
    0.7369              -42.97          1.706          55.66          45.26          1.892         -9.711         -69.84          77.71         -68.41          113.6          156.6
    0.7829              -42.97          1.721          55.64          45.25          1.895         -9.706         -69.84           77.7         -68.36          113.5          156.6
     0.829              -42.98          1.737          55.62          45.24          1.897         -9.701         -69.85          77.68          -68.3          113.5          156.6
     0.875              -42.98          1.755          55.59          45.24            1.9         -9.696         -69.85          77.66         -68.23          113.5          156.6
    0.9211              -42.98          1.775          55.56          45.23          1.903          -9.69         -69.86          77.64         -68.16          113.5          156.6
    0.9671              -42.98          1.797          55.53          45.22          1.907         -9.684         -69.87          77.62         -68.08          113.4          156.6
     1.013              -42.98          1.821           55.5          45.22          1.911         -9.676         -69.87           77.6          -68.0          113.4          156.6
     1.059              -42.99          1.848          55.46          45.21          1.915         -9.668         -69.88          77.57          -67.9          113.4          156.6
     1.105              -42.99          1.878          55.42           45.2           1.92          -9.66         -69.89          77.54         -67.79          113.3          156.6
     1.151              -42.99          1.911          55.37          45.19          1.925          -9.65          -69.9          77.51         -67.67          113.3          156.6
     1.197              -42.99          1.948          55.32          45.17          1.931         -9.639         -69.91          77.47         -67.54          113.2          156.6
     1.243               -43.0           1.99          55.26          45.16          1.938         -9.626         -69.92          77.43         -67.39          113.2          156.6
     1.289               -43.0          2.037          55.19          45.14          1.946         -9.612         -69.94          77.38         -67.22          113.1          156.7
     1.336              -43.01          2.091          55.12          45.12          1.954         -9.596         -69.96          77.33         -67.03          113.0          156.7
     1.382              -43.01          2.152          55.03           45.1          1.964         -9.578         -69.97          77.27         -66.81          112.9          156.7
     1.428              -43.02          2.223          54.93          45.08          1.976         -9.557         -69.99           77.2         -66.55          112.8          156.7
     1.474              -43.03          2.304          54.81          45.05          1.989         -9.533         -70.02          77.12         -66.26          112.7          156.7
      1.52              -43.04          2.398          54.68          45.02          2.004         -9.505         -70.05          77.02         -65.92          112.6          156.7
     1.566              -43.05          2.509          54.52          44.98          2.022         -9.472         -70.08          76.91         -65.52          112.4          156.7
     1.612              -43.06          2.639          54.34          44.94          2.043         -9.433         -70.12          76.78         -65.06          112.2          156.7
     1.658              -43.07          2.794          54.12          44.88          2.068         -9.387         -70.17          76.63          -64.5          112.0          156.7
     1.704              -43.09          2.979          53.86          44.82          2.097         -9.332         -70.22          76.44         -63.83          111.7          156.7
      1.75              -43.11          3.204          53.54          44.74          2.134         -9.265         -70.29          76.22         -63.03          111.4          156.7
     1.796              -43.14          3.478          53.15          44.65          2.178         -9.183         -70.37          75.94         -62.04          111.0          156.7
     1.842              -43.17          3.816          52.67          44.53          2.232         -9.083         -70.47          75.61         -60.82          110.5          156.7
     1.888              -43.21          4.238          52.08          44.39            2.3         -8.957          -70.6          75.18         -59.31          109.9          156.8
     1.934              -43.25          4.769          51.33          44.21          2.386         -8.799         -70.76          74.65          -57.4          109.1          156.8
      1.98              -43.32          5.445          50.37          43.98          2.495         -8.598         -70.96          73.98         -54.97          108.1          156.8
     2.026               -43.4           6.31          49.15          43.68          2.634          -8.34         -71.22          73.11         -51.86          106.8          156.9
     2.072               -43.5          7.419          47.57           43.3          2.813          -8.01         -71.55          72.01         -47.87          105.2          156.9
     2.118              -43.63          8.837          45.57          42.82          3.041         -7.588         -71.98          70.59         -42.77          103.1          157.0
     2.165              -43.79          10.62          43.05          42.21          3.328         -7.058         -72.51          68.81         -36.37          100.5          157.1
     2.211              -43.99          12.79          39.97          41.46          3.678         -6.411         -73.16          66.64         -28.56          97.33          157.2
     2.257              -44.23          15.31          36.41           40.6          4.083         -5.662         -73.92          64.12          -19.5          93.65          157.3
     2.303              -44.48          18.03          32.55          39.67          4.522          -4.85         -74.74           61.4         -9.704          89.66          157.4
     2.349              -44.73          20.76          28.69          38.74          4.961         -4.039         -75.56          58.68         0.0972          85.66          157.5
     2.395              -44.96          23.28          25.13          37.88          5.367         -3.289         -76.31          56.16          9.149          81.98          157.7
     2.441              -45.16          25.45          22.06          37.13          5.717         -2.643         -76.96          53.99          16.96           78.8          157.8
